<svg xmlns="http://www.w3.org/2000/svg" width="246" height="120" fill="none" viewBox="0 0 246 120"><path fill="#FFE1F1" d="M248 0H0v120h248V0Z"/><path fill="#fff" d="M236.195 27.2a2.4 2.4 0 1 0 .001-4.801 2.4 2.4 0 0 0-.001 4.801ZM19.608 46.2a2.4 2.4 0 1 0 0-4.801 2.4 2.4 0 0 0 0 4.801ZM201.181 108.3H45.118c-5.202 0-9.504-4.2-9.504-9.5V0h174.971v98.8c.1 5.3-4.202 9.5-9.404 9.5Z"/><path fill="#B39EF6" d="M152.562 95.6H95.438c-2.8 0-5.102-2.3-5.102-5.1V76.7c0-2.8 2.301-5.1 5.103-5.1h57.123c2.801 0 5.102 2.3 5.102 5.1v13.9c0 2.8-2.301 5-5.102 5Z"/><path fill="#16191B" d="m158.432 91.586-3.466 3.464 7.852 7.849 3.466-3.465-7.852-7.848Z"/><path fill="#16191B" d="m148.96 85.6 5.602 16.3 10.705-10.7-16.307-5.6Z"/><path fill="#D7C7FB" d="M239.397 94.2c-13.306 2-14.906 3.8-17.007 17-2.001-13.3-3.802-14.9-17.007-17 13.305-2 14.906-3.8 17.007-17 2 13.3 3.701 14.9 17.007 17Z"/><path fill="#F3F4F5" d="M181.573 31.5H62.025c-3.701 0-6.703-3-6.703-6.7V12.5c0-3.7 3.002-6.7 6.703-6.7h119.548c3.702 0 6.703 3 6.703 6.7v12.4c0 3.6-3.001 6.6-6.703 6.6ZM116.447 61.4H62.025c-3.701 0-6.703-3-6.703-6.7V42.3c0-3.7 3.002-6.7 6.703-6.7h54.322c3.701 0 6.703 3 6.703 6.7v12.4c.1 3.7-2.902 6.7-6.603 6.7ZM181.573 61.4h-48.319c-3.702 0-6.703-3-6.703-6.7V42.3c0-3.7 3.001-6.7 6.703-6.7h48.319c3.702 0 6.703 3 6.703 6.7v12.4c0 3.7-3.001 6.7-6.703 6.7Z"/><path fill="#FAC1DE" d="M94.438 61.4c-15.706 2.4-17.607 4.4-20.108 20.1-2.401-15.7-4.402-17.6-20.108-20.1C69.928 59 71.829 57 74.33 41.3c2.3 15.7 4.402 17.6 20.108 20.1Z"/></svg>