<svg xmlns="http://www.w3.org/2000/svg" width="246" height="120" fill="none" viewBox="0 0 246 120"><path fill="#FFE1F1" d="M248 .2H0v119.9h248V.2Z"/><path fill="#fff" d="M45.618 86.228c-11.604 1.699-13.005 3.297-14.806 14.788-1.7-11.59-3.3-12.99-14.806-14.788 11.605-1.698 13.006-3.297 14.806-14.787 1.701 11.49 3.302 12.889 14.806 14.787ZM213.586 30.075c-8.003 1.199-9.004 2.298-10.304 10.291-1.201-7.993-2.301-8.992-10.304-10.291 8.003-1.2 9.003-2.298 10.304-10.291 1.2 7.993 2.301 8.992 10.304 10.29ZM157.664 107.111a2.4 2.4 0 1 0 0-4.796 2.4 2.4 0 1 0 0 4.796Z"/><path fill="#8E76F2" d="m91.937 0 43.318 65.046 5.002-3.397L99.14 0h-7.203Z"/><path fill="#8E76F2" d="m120.949 0-16.407 68.043 5.803 1.4L127.151 0h-6.202Z"/><path fill="#fff" d="M180.673 92.423 73.129 109.209c-3.2.5-6.202-1.699-6.702-4.896l-9.704-62.448c-.5-3.197 1.7-6.195 4.902-6.694l107.443-16.786a5.875 5.875 0 0 1 6.703 4.896l9.704 62.448c.6 3.197-1.601 6.194-4.802 6.694Z"/><path fill="#3A4047" d="m126.751 39.167-17.507 2.698c-3.001.5-5.702-1.599-6.202-4.496l-1.501-9.592c-.1-.8.4-1.499 1.2-1.599l25.411-3.997c.8-.1 1.5.4 1.6 1.2l1.501 9.591c.5 2.998-1.501 5.696-4.502 6.195Z"/><path fill="#FAC1DE" d="m109.544 94.421-31.513 4.896c-1.3.2-2.5-.7-2.7-1.998l-6.503-41.466c-.2-1.298.7-2.498 2-2.697l31.513-4.896c1.301-.2 2.501.7 2.701 1.998l6.503 41.466c.2 1.199-.7 2.498-2.001 2.697Z"/><path fill="#FF85CE" d="M95.038 77.935c2.802-1.898 4.402-5.296 3.902-8.793-.8-4.995-5.402-8.293-10.404-7.593-5.002.7-8.404 5.395-7.603 10.391.6 3.497 3.1 6.195 6.402 7.194-5.802 2.998-9.303 10.691-8.003 18.884.1.3.1.8.2 1.1l29.212-4.597c-.1-.3-.1-.6-.2-1.099-1.401-8.293-6.903-14.388-13.506-15.487Z"/><path fill="#F9FAFA" d="M84.734 71.14c.6 2.798 3.401 4.597 6.203 4.097 2.8-.5 4.702-3.297 4.201-6.194L84.734 71.14Z"/><path fill="#262B2F" d="M86.435 68.543a1.3 1.3 0 1 0 .001-2.6 1.3 1.3 0 0 0-.001 2.6ZM92.337 67.544a1.3 1.3 0 1 0 .002-2.6 1.3 1.3 0 0 0-.002 2.6Z"/><path fill="#FF85CE" d="M95.338 56.553a1.7 1.7 0 1 0 .003-3.4 1.7 1.7 0 0 0-.003 3.4ZM77.33 65.146a1.1 1.1 0 1 0 .002-2.2 1.1 1.1 0 0 0-.001 2.2Z"/><path fill="#D7C7FB" d="M48.02 49.659c9.502 0 17.206-7.695 17.206-17.186S57.523 15.287 48.02 15.287c-9.503 0-17.207 7.695-17.207 17.186s7.704 17.186 17.207 17.186Z"/><path fill="#fff" d="m56.023 43.764-8.104-5.995-8.303 5.895 3.301-9.592-8.303-6.095 10.204.1 3.301-9.692 3.002 9.692 10.104.1-8.204 5.995 3.002 9.592Z"/><path fill="#D7C7FB" d="M217.588 89.825c10.221 0 18.507-8.276 18.507-18.484 0-10.21-8.286-18.485-18.507-18.485-10.222 0-18.508 8.276-18.508 18.485 0 10.208 8.286 18.484 18.508 18.484Z"/><path fill="#fff" d="m226.291 83.53-8.803-6.494-8.904 6.394 3.502-10.39-8.904-6.595 11.004.1 3.502-10.392 3.301 10.392 10.905.1-8.904 6.494 3.301 10.391Z"/><path fill="#FAC1DE" d="m167.77 46.021-52.031 8.504.324 1.972 52.03-8.504-.323-1.972ZM169.868 58.71l-52.031 8.504.323 1.972 52.031-8.504-.323-1.972ZM171.567 71.412l-52.031 8.504.323 1.972 52.031-8.504-.323-1.972Z"/><path fill="#8E76F2" d="M117.283 35.227c2.293-.356 3.911-2.192 3.613-4.1-.297-1.91-2.397-3.167-4.69-2.81-2.293.356-3.911 2.192-3.613 4.1.297 1.91 2.398 3.167 4.69 2.81Z"/></svg>